<svg xmlns="http://www.w3.org/2000/svg" version="1.1" xmlns:xlink="http://www.w3.org/1999/xlink" xmlns:svgjs="http://svgjs.dev/svgjs" width="1500" height="1500" viewBox="0 0 1500 1500"><rect width="1500" height="1500" fill="#191552"></rect><g transform="matrix(0.6666666666666666,0,0,0.6666666666666666,249.39393939393938,682.2341459526839)"><svg viewBox="0 0 396 53" data-background-color="#191552" preserveAspectRatio="xMidYMid meet" height="200" width="1500" xmlns="http://www.w3.org/2000/svg" xmlns:xlink="http://www.w3.org/1999/xlink"><g id="tight-bounds" transform="matrix(1,0,0,1,0.2400000000000091,0.43692698380817774)"><svg viewBox="0 0 395.52 52.126146032383645" height="52.126146032383645" width="395.52"><g><svg viewBox="0 0 443.19877555589096 58.40979999999999" height="52.126146032383645" width="395.52"><g><svg viewBox="0 0 443.19877555589096 58.40979999999999" height="58.40979999999999" width="443.19877555589096"><g id="textblocktransform"><svg viewBox="0 0 443.19877555589096 58.40979999999999" height="58.40979999999999" width="443.19877555589096" id="textblock"><g><svg viewBox="0 0 443.19877555589096 58.40979999999999" height="58.40979999999999" width="443.19877555589096"><g><svg><g></g><g></g></svg></g><g><svg><g><svg></svg></g><g></g></svg></g><g id="text-0"><svg viewBox="0 0 443.19877555589096 58.40979999999999" height="58.40979999999999" width="443.19877555589096"><g transform="matrix(1,0,0,1,0,9.513447786512202)"><svg width="395.52" viewBox="1.45 -35.75 362.53000000000003 36.1" height="39.382904426975585" data-palette-color="#017cc5"><path d="M27.2-31.7L25.1-28.05Q24.5-28.75 23.5-29.4 22.5-30.05 21.25-30.58 20-31.1 18.53-31.43 17.05-31.75 15.45-31.75L15.45-31.75Q11.35-31.75 9.4-30.2 7.45-28.65 7.45-25.95L7.45-25.95Q7.45-24.05 8.45-22.95 9.45-21.85 11.53-21.15 13.6-20.45 16.8-19.7L16.8-19.7Q20.5-18.9 23.2-17.75 25.9-16.6 27.35-14.68 28.8-12.75 28.8-9.55L28.8-9.55Q28.8-7 27.83-5.13 26.85-3.25 25.1-2.02 23.35-0.8 21-0.23 18.65 0.35 15.9 0.35L15.9 0.35Q13.2 0.35 10.63-0.23 8.05-0.8 5.75-1.9 3.45-3 1.45-4.65L1.45-4.65 3.6-8.45Q4.4-7.6 5.68-6.78 6.95-5.95 8.58-5.25 10.2-4.55 12.1-4.13 14-3.7 16-3.7L16-3.7Q19.8-3.7 21.9-5.08 24-6.45 24-9.1L24-9.1Q24-11.1 22.83-12.3 21.65-13.5 19.35-14.3 17.05-15.1 13.75-15.9L13.75-15.9Q10.15-16.8 7.7-17.88 5.25-18.95 4.03-20.7 2.8-22.45 2.8-25.25L2.8-25.25Q2.8-28.65 4.45-31 6.1-33.35 9-34.55 11.9-35.75 15.55-35.75L15.55-35.75Q17.95-35.75 20.03-35.25 22.1-34.75 23.9-33.85 25.7-32.95 27.2-31.7L27.2-31.7ZM60.3-35.5L60.3-31.5 48.05-31.5 48.05 0 43.55 0 43.55-31.5 31.3-31.5 31.3-35.5 60.3-35.5ZM78.75 0.25L78.75 0.25Q75 0.25 71.95-1.25 68.9-2.75 66.67-5.33 64.45-7.9 63.25-11.13 62.05-14.35 62.05-17.75L62.05-17.75Q62.05-21.3 63.32-24.53 64.6-27.75 66.87-30.28 69.15-32.8 72.2-34.27 75.25-35.75 78.85-35.75L78.85-35.75Q82.6-35.75 85.65-34.2 88.7-32.65 90.9-30.05 93.1-27.45 94.3-24.25 95.5-21.05 95.5-17.7L95.5-17.7Q95.5-14.15 94.25-10.93 93-7.7 90.72-5.18 88.45-2.65 85.4-1.2 82.35 0.25 78.75 0.25ZM66.6-17.75L66.6-17.75Q66.6-15.05 67.47-12.53 68.35-10 69.95-8.05 71.55-6.1 73.8-4.95 76.05-3.8 78.8-3.8L78.8-3.8Q81.65-3.8 83.9-5 86.15-6.2 87.72-8.2 89.3-10.2 90.12-12.7 90.95-15.2 90.95-17.75L90.95-17.75Q90.95-20.45 90.07-22.95 89.2-25.45 87.57-27.43 85.95-29.4 83.72-30.53 81.5-31.65 78.8-31.65L78.8-31.65Q75.95-31.65 73.7-30.48 71.45-29.3 69.87-27.3 68.3-25.3 67.45-22.83 66.6-20.35 66.6-17.75ZM99.44-18L99.44-18Q99.44-21.25 100.57-24.38 101.69-27.5 103.87-30.08 106.04-32.65 109.19-34.18 112.34-35.7 116.34-35.7L116.34-35.7Q121.09-35.7 124.49-33.52 127.89-31.35 129.54-27.95L129.54-27.95 125.99-25.65Q124.94-27.9 123.32-29.23 121.69-30.55 119.82-31.1 117.94-31.65 116.14-31.65L116.14-31.65Q113.19-31.65 110.92-30.45 108.64-29.25 107.09-27.25 105.54-25.25 104.77-22.78 103.99-20.3 103.99-17.8L103.99-17.8Q103.99-15.05 104.92-12.5 105.84-9.95 107.49-8 109.14-6.05 111.39-4.9 113.64-3.75 116.29-3.75L116.29-3.75Q118.14-3.75 120.09-4.4 122.04-5.05 123.74-6.43 125.44-7.8 126.44-10L126.44-10 130.19-7.95Q129.09-5.3 126.79-3.45 124.49-1.6 121.67-0.65 118.84 0.3 116.09 0.3L116.09 0.3Q112.44 0.3 109.39-1.28 106.34-2.85 104.12-5.48 101.89-8.1 100.67-11.38 99.44-14.65 99.44-18ZM140.34 0L135.84 0 135.84-35.45 140.34-35.45 140.34-15.85 158.64-35.5 163.49-35.5 149.24-19.85 164.29 0 159.24 0 146.39-17.15 140.34-10.85 140.34 0ZM203.64 0L199.14 0 199.14-27.1 187.44-6.25 184.69-6.25 172.94-27.1 172.94 0 168.44 0 168.44-35.5 173.19-35.5 186.04-12.45 198.94-35.5 203.64-35.5 203.64 0ZM208.38 0L222.94-35.5 226.73-35.5 241.23 0 236.44 0 232.23-10.4 217.33-10.4 213.19 0 208.38 0ZM218.23-13.9L231.23-13.9 224.83-30.3 218.23-13.9ZM268.43-31.7L266.33-28.05Q265.73-28.75 264.73-29.4 263.73-30.05 262.48-30.58 261.23-31.1 259.76-31.43 258.28-31.75 256.68-31.75L256.68-31.75Q252.58-31.75 250.63-30.2 248.68-28.65 248.68-25.95L248.68-25.95Q248.68-24.05 249.68-22.95 250.68-21.85 252.76-21.15 254.83-20.45 258.03-19.7L258.03-19.7Q261.73-18.9 264.43-17.75 267.13-16.6 268.58-14.68 270.03-12.75 270.03-9.55L270.03-9.55Q270.03-7 269.06-5.13 268.08-3.25 266.33-2.02 264.58-0.8 262.23-0.23 259.88 0.35 257.13 0.35L257.13 0.35Q254.43 0.35 251.86-0.23 249.28-0.8 246.98-1.9 244.68-3 242.68-4.65L242.68-4.65 244.83-8.45Q245.63-7.6 246.91-6.78 248.18-5.95 249.81-5.25 251.43-4.55 253.33-4.13 255.23-3.7 257.23-3.7L257.23-3.7Q261.03-3.7 263.13-5.08 265.23-6.45 265.23-9.1L265.23-9.1Q265.23-11.1 264.06-12.3 262.88-13.5 260.58-14.3 258.28-15.1 254.98-15.9L254.98-15.9Q251.38-16.8 248.93-17.88 246.48-18.95 245.26-20.7 244.03-22.45 244.03-25.25L244.03-25.25Q244.03-28.65 245.68-31 247.33-33.35 250.23-34.55 253.13-35.75 256.78-35.75L256.78-35.75Q259.18-35.75 261.26-35.25 263.33-34.75 265.13-33.85 266.93-32.95 268.43-31.7L268.43-31.7ZM301.53-35.5L301.53-31.5 289.28-31.5 289.28 0 284.78 0 284.78-31.5 272.53-31.5 272.53-35.5 301.53-35.5ZM311.13-4L330.73-4 330.73 0 306.63 0 306.63-35.5 330.28-35.5 330.28-31.5 311.13-31.5 311.13-20 327.78-20 327.78-16.25 311.13-16.25 311.13-4ZM341.38 0L336.88 0 336.88-35.5 352.07-35.5Q354.43-35.5 356.38-34.52 358.32-33.55 359.77-31.93 361.23-30.3 362.02-28.28 362.82-26.25 362.82-24.15L362.82-24.15Q362.82-21.7 361.9-19.5 360.98-17.3 359.3-15.75 357.63-14.2 355.38-13.6L355.38-13.6 363.98 0 358.88 0 350.77-12.75 341.38-12.75 341.38 0ZM341.38-31.5L341.38-16.75 352.13-16.75Q353.98-16.75 355.35-17.78 356.73-18.8 357.5-20.5 358.27-22.2 358.27-24.15L358.27-24.15Q358.27-26.15 357.38-27.83 356.48-29.5 355.02-30.5 353.57-31.5 351.82-31.5L351.82-31.5 341.38-31.5Z" opacity="1" transform="matrix(1,0,0,1,0,0)" fill="#017cc5" class="wordmark-text-0" data-fill-palette-color="primary"></path></svg></g><g><svg xmlns="http://www.w3.org/2000/svg" xmlns:xlink="http://www.w3.org/1999/xlink" version="1.1" x="409.3102" y="0" viewBox="21.679106830508616 1 56.85827385947762 98" enable-background="new 0 0 100 100" xml:space="preserve" height="58.40979999999999" width="33.888575555890974" class="icon-dxe-0" data-fill-palette-color="accent" id="dxe-0"><g fill="#017cc5" data-fill-palette-color="accent"><path fill-rule="evenodd" clip-rule="evenodd" d="M30.545 28.822C29.38 36.039 30.875 43.672 37.045 47.863 30.758 19.81 45.756 8.664 59.646 1 43.466 24.046 76.542 24.644 78.423 51.13 80.028 73.71 64.507 91.317 46.639 99 46.845 76.175 24.089 73.067 21.801 54.397 20.905 47.094 25.062 33.766 30.545 28.822" fill="#017cc5" data-fill-palette-color="accent"></path></g></svg></g></svg></g></svg></g></svg></g></svg></g><g></g></svg></g><defs></defs></svg><rect width="395.52" height="52.126146032383645" fill="none" stroke="none" visibility="hidden"></rect></g></svg></g></svg>